<svg width="24" height="24" viewBox="0 0 24 24" fill="none" xmlns="http://www.w3.org/2000/svg">
<path d="M1.25 8.25H22.25M1.25 8.25V18.5169C1.25 19.8237 1.25 20.4767 1.53611 20.9759C1.78778 21.4149 2.18906 21.7722 2.68298 21.9959C3.24395 22.25 3.97868 22.25 5.44594 22.25H18.0541C19.5213 22.25 20.255 22.25 20.816 21.9959C21.3099 21.7722 21.7125 21.4149 21.9642 20.9759C22.25 20.4772 22.25 19.8251 22.25 18.5208V8.25M1.25 8.25V7.31689C1.25 6.01011 1.25 5.35622 1.53611 4.8571C1.78778 4.41805 2.18906 4.06136 2.68298 3.83765C3.2445 3.58333 3.98012 3.58333 5.45026 3.58333H6.5M22.25 8.25V7.31306C22.25 6.00883 22.25 5.35574 21.9642 4.8571C21.7125 4.41805 21.3099 4.06136 20.816 3.83765C20.2544 3.58333 19.5204 3.58333 18.0503 3.58333H17M17 1.25V3.58333M17 3.58333H6.5M6.5 1.25V3.58333" stroke="#001234" stroke-width="2.5" stroke-linecap="round" stroke-linejoin="round"/>
</svg>
